<svg  fill="#53b2b8" id="Capa_1" enable-background="new 0 0 512 512" height="512" viewBox="0 0 512 512" width="512" xmlns="http://www.w3.org/2000/svg"><g><path d="m474.5 79.25h-79.226l-135.524-78.245c-2.32-1.34-5.18-1.34-7.5 0l-135.524 78.245h-79.226c-20.711 0-37.5 16.789-37.5 37.5v297.75c0 20.711 16.789 37.5 37.5 37.5h161.823l-6.99 27.957c-2.504 10.016-11.504 17.043-21.828 17.043h-62.005c-4.142 0-7.5 3.358-7.5 7.5s3.358 7.5 7.5 7.5h295c4.142 0 7.5-3.358 7.5-7.5s-3.358-7.5-7.5-7.5h-62.005c-10.324 0-19.324-7.027-21.828-17.043l-6.99-27.957h161.823c20.711 0 37.5-16.789 37.5-37.5v-297.75c0-20.711-16.789-37.5-37.5-37.5zm-88.735 161.67-122.265 70.59v-141.18l122.265-70.59zm-259.53-141.18 122.265 70.59v141.18l-122.265-70.59zm129.765 57.6-122.265-70.59 53.632-30.965 122.265 70.589zm0-141.18 122.265 70.59-53.632 30.965-122.266-70.59zm-218.5 78.09h73.735v15h-73.735c-4.143 0-7.5 3.358-7.5 7.5v103.875c0 4.142 3.357 7.5 7.5 7.5s7.5-3.358 7.5-7.5v-96.375h66.235v121c0 2.68 1.43 5.155 3.75 6.495l137.265 79.25c1.16.67 2.455 1.005 3.75 1.005s2.59-.335 3.75-1.005l137.265-79.25c2.32-1.34 3.75-3.815 3.75-6.495v-121h66.235v222.75h-422v-96.375c0-4.142-3.357-7.5-7.5-7.5s-7.5 3.358-7.5 7.5v103.875c0 4.142 3.357 7.5 7.5 7.5h437c4.143 0 7.5-3.358 7.5-7.5v-237.75c0-4.142-3.357-7.5-7.5-7.5h-73.735v-15h73.735c12.406 0 22.5 10.093 22.5 22.5v260.25h-482v-260.25c0-12.407 10.094-22.5 22.5-22.5zm267.614 389.345c1.244 4.975 3.447 9.498 6.375 13.405h-110.978c2.927-3.907 5.13-8.43 6.374-13.405l7.9-31.595h82.431zm169.386-46.595h-437c-12.406 0-22.5-10.093-22.5-22.5v-22.5h482v22.5c0 12.407-10.094 22.5-22.5 22.5z"/><path d="m282.25 279.034c1.16.67 2.455 1.005 3.75 1.005s2.59-.335 3.75-1.005l77.265-44.609c2.32-1.34 3.75-3.815 3.75-6.495v-34.641c0-2.68-1.43-5.155-3.75-6.495s-5.18-1.34-7.5 0l-77.265 44.609c-2.32 1.34-3.75 3.815-3.75 6.495v34.641c0 2.679 1.43 5.155 3.75 6.495zm11.25-36.806 62.265-35.949v17.321l-62.265 35.948z"/></g></svg>