<svg id="accounting" xmlns="http://www.w3.org/2000/svg" width="217.766" height="217.872" viewBox="0 0 217.766 217.872">
  <path id="Path_357" data-name="Path 357" d="M140.312,288a36.312,36.312,0,1,0,36.312,36.312A36.312,36.312,0,0,0,140.312,288Zm0,65.362a29.05,29.05,0,1,1,29.05-29.05A29.049,29.049,0,0,1,140.312,353.362Zm0,0" transform="translate(-56.794 -157.277)" fill="#53b2b8"/>
  <path id="Path_358" data-name="Path 358" d="M166.525,330.894c4.434,0,7.262,2.149,7.262,3.631h7.262c0-5.16-4.571-9.339-10.894-10.53V320h-7.262v3.995c-6.323,1.183-10.894,5.363-10.894,10.53,0,6.112,6.379,10.894,14.525,10.894,4.434,0,7.262,2.149,7.262,3.631s-2.828,3.631-7.262,3.631-7.262-2.149-7.262-3.631H152c0,5.16,4.571,9.339,10.894,10.53v3.995h7.262V359.58c6.323-1.183,10.894-5.363,10.894-10.53,0-6.112-6.379-10.894-14.525-10.894-4.434,0-7.262-2.149-7.262-3.631S162.09,330.894,166.525,330.894Zm0,0" transform="translate(-83.007 -174.752)" fill="#53b2b8"/>
  <path id="Path_359" data-name="Path 359" d="M185.191,210.61H32.681V123.461h58.1a10.894,10.894,0,0,0,10.894-10.894V21.787h39.943V65.362h43.574V116.2h7.262V60.227l-45.7-45.7H101.674V10.894A10.894,10.894,0,0,0,90.78,0H10.894A10.894,10.894,0,0,0,0,10.894V112.567a10.894,10.894,0,0,0,10.894,10.894H25.418v94.411H192.454V167.035h-7.262ZM148.879,26.922,180.056,58.1H148.879ZM7.262,112.567V10.894a3.631,3.631,0,0,1,3.631-3.631H90.78a3.631,3.631,0,0,1,3.631,3.631V112.567A3.631,3.631,0,0,1,90.78,116.2H10.894A3.631,3.631,0,0,1,7.262,112.567Zm0,0" fill="#53b2b8"/>
  <path id="Path_360" data-name="Path 360" d="M256,200h7.262v7.262H256Zm0,0" transform="translate(-139.802 -109.22)" fill="#53b2b8"/>
  <path id="Path_361" data-name="Path 361" d="M288,200h43.574v7.262H288Zm0,0" transform="translate(-157.277 -109.22)" fill="#53b2b8"/>
  <path id="Path_362" data-name="Path 362" d="M256,168h7.262v7.262H256Zm0,0" transform="translate(-139.802 -91.745)" fill="#53b2b8"/>
  <path id="Path_363" data-name="Path 363" d="M288,168h43.574v7.262H288Zm0,0" transform="translate(-157.277 -91.745)" fill="#53b2b8"/>
  <path id="Path_364" data-name="Path 364" d="M256,232h7.262v7.262H256Zm0,0" transform="translate(-139.802 -126.695)" fill="#53b2b8"/>
  <path id="Path_365" data-name="Path 365" d="M288,232h43.574v7.262H288Zm0,0" transform="translate(-157.277 -126.695)" fill="#53b2b8"/>
  <path id="Path_366" data-name="Path 366" d="M256,264h7.262v7.262H256Zm0,0" transform="translate(-139.802 -144.17)" fill="#53b2b8"/>
  <path id="Path_367" data-name="Path 367" d="M288,264h43.574v7.262H288Zm0,0" transform="translate(-157.277 -144.17)" fill="#53b2b8"/>
  <path id="Path_368" data-name="Path 368" d="M103.886,24H24V49.418h79.886ZM96.624,42.156H31.262V31.262H96.624Zm0,0" transform="translate(-13.106 -13.106)" fill="#53b2b8"/>
  <path id="Path_369" data-name="Path 369" d="M46.525,88H39.262A7.263,7.263,0,0,0,32,95.262v7.262a7.263,7.263,0,0,0,7.262,7.262h7.262a7.263,7.263,0,0,0,7.262-7.262V95.262A7.263,7.263,0,0,0,46.525,88Zm-7.262,14.525V95.262h7.262v7.262Zm0,0" transform="translate(-17.475 -48.057)" fill="#53b2b8"/>
  <path id="Path_370" data-name="Path 370" d="M102.525,88H95.262A7.263,7.263,0,0,0,88,95.262v7.262a7.263,7.263,0,0,0,7.262,7.262h7.262a7.263,7.263,0,0,0,7.262-7.262V95.262A7.263,7.263,0,0,0,102.525,88Zm-7.262,14.525V95.262h7.262v7.262Zm0,0" transform="translate(-48.057 -48.057)" fill="#53b2b8"/>
  <path id="Path_371" data-name="Path 371" d="M158.525,88h-7.262A7.263,7.263,0,0,0,144,95.262v7.262a7.263,7.263,0,0,0,7.262,7.262h7.262a7.263,7.263,0,0,0,7.262-7.262V95.262A7.263,7.263,0,0,0,158.525,88Zm-7.262,14.525V95.262h7.262v7.262Zm0,0" transform="translate(-78.638 -48.057)" fill="#53b2b8"/>
  <path id="Path_372" data-name="Path 372" d="M46.525,144H39.262A7.263,7.263,0,0,0,32,151.262v7.262a7.263,7.263,0,0,0,7.262,7.262h7.262a7.263,7.263,0,0,0,7.262-7.262v-7.262A7.263,7.263,0,0,0,46.525,144Zm-7.262,14.525v-7.262h7.262v7.262Zm0,0" transform="translate(-17.475 -78.638)" fill="#53b2b8"/>
  <path id="Path_373" data-name="Path 373" d="M102.525,144H95.262A7.263,7.263,0,0,0,88,151.262v7.262a7.263,7.263,0,0,0,7.262,7.262h7.262a7.263,7.263,0,0,0,7.262-7.262v-7.262A7.263,7.263,0,0,0,102.525,144Zm-7.262,14.525v-7.262h7.262v7.262Zm0,0" transform="translate(-48.057 -78.638)" fill="#53b2b8"/>
  <path id="Path_374" data-name="Path 374" d="M158.525,144h-7.262A7.263,7.263,0,0,0,144,151.262v7.262a7.263,7.263,0,0,0,7.262,7.262h7.262a7.263,7.263,0,0,0,7.262-7.262v-7.262A7.263,7.263,0,0,0,158.525,144Zm-7.262,14.525v-7.262h7.262v7.262Zm0,0" transform="translate(-78.638 -78.638)" fill="#53b2b8"/>
  <path id="Path_375" data-name="Path 375" d="M46.525,200H39.262A7.263,7.263,0,0,0,32,207.262v7.262a7.263,7.263,0,0,0,7.262,7.262h7.262a7.263,7.263,0,0,0,7.262-7.262v-7.262A7.263,7.263,0,0,0,46.525,200Zm-7.262,14.525v-7.262h7.262v7.262Zm0,0" transform="translate(-17.475 -109.22)" fill="#53b2b8"/>
  <path id="Path_376" data-name="Path 376" d="M102.525,200H95.262A7.263,7.263,0,0,0,88,207.262v7.262a7.263,7.263,0,0,0,7.262,7.262h7.262a7.263,7.263,0,0,0,7.262-7.262v-7.262A7.263,7.263,0,0,0,102.525,200Zm-7.262,14.525v-7.262h7.262v7.262Zm0,0" transform="translate(-48.057 -109.22)" fill="#53b2b8"/>
  <path id="Path_377" data-name="Path 377" d="M158.525,200h-7.262A7.263,7.263,0,0,0,144,207.262v7.262a7.263,7.263,0,0,0,7.262,7.262h7.262a7.263,7.263,0,0,0,7.262-7.262v-7.262A7.263,7.263,0,0,0,158.525,200Zm-7.262,14.525v-7.262h7.262v7.262Zm0,0" transform="translate(-78.638 -109.22)" fill="#53b2b8"/>
  <path id="Path_378" data-name="Path 378" d="M367.49,251.552a11.151,11.151,0,0,0-15.4,0L289.837,313.8a3.674,3.674,0,0,0-.727,1.05l-8.766,19.035a3.633,3.633,0,0,0,4.816,4.816l19.035-8.766a3.64,3.64,0,0,0,1.05-.727l62.245-62.25A10.892,10.892,0,0,0,367.49,251.552Zm-66.925,72.057-9.514,4.383,4.383-9.514,46.413-46.417,5.135,5.135Zm51.562-51.564-5.135-5.133,2.543-2.543,5.135,5.135Zm10.241-10.239-2.567,2.567-5.135-5.135,2.571-2.567a3.712,3.712,0,0,1,5.131,0A3.633,3.633,0,0,1,362.367,261.806Zm0,0" transform="translate(-152.915 -135.687)" fill="#53b2b8"/>
</svg>
